<svg xmlns="http://www.w3.org/2000/svg" viewBox="0 0 64 64">
  <rect x="0" y="0" width="64" height="64" fill="#252422"/>
  <rect x="4" y="4" width="56" height="56" fill="#302e2b" opacity="0.45"/>
  <rect x="2" y="2" width="60" height="60" fill="none" stroke="#443f3a" stroke-opacity="0.65" stroke-width="2"/>
  <rect x="6" y="6" width="52" height="52" fill="none" stroke="#cdc6b4" stroke-opacity="0.30" stroke-width="1"/>
  <rect x="3" y="3" width="20" height="20" fill="#252422" opacity="0.72"/>
  <rect x="16" y="16" width="32" height="6" fill="#443f3a"/>
  <rect x="16" y="42" width="32" height="6" fill="#443f3a"/>
  <rect x="10" y="22" width="8" height="20" fill="#443f3a"/>
  <rect x="46" y="22" width="8" height="20" fill="#443f3a"/>
  <rect x="20" y="20" width="24" height="4" fill="#302e2b"/>
  <rect x="20" y="40" width="24" height="4" fill="#302e2b"/>
  <rect x="14" y="24" width="6" height="16" fill="#302e2b"/>
  <rect x="44" y="24" width="6" height="16" fill="#302e2b"/>
  <rect x="20" y="24" width="24" height="16" fill="#302e2b"/>
  <rect x="17" y="17" width="30" height="4" fill="#6d6758"/>
  <rect x="17" y="43" width="30" height="4" fill="#6d6758"/>
  <rect x="11" y="23" width="6" height="18" fill="#6d6758"/>
  <rect x="47" y="23" width="6" height="18" fill="#6d6758"/>
  <rect x="22" y="20" width="20" height="6" fill="#443f3a"/>
  <rect x="22" y="38" width="20" height="6" fill="#443f3a"/>
  <rect x="24" y="22" width="16" height="20" fill="#d9d0b7"/>
  <rect x="26" y="24" width="12" height="16" fill="#ede8d7"/>
  <rect x="32" y="22" width="2" height="20" fill="#6d6758"/>
  <rect x="26" y="24" width="12" height="4" fill="#d9d0b7"/>
  <rect x="26" y="24" width="4" height="4" fill="#ede8d7"/>
  <rect x="17" y="22" width="4" height="2" fill="#ede8d7"/>
  <rect x="43" y="22" width="4" height="2" fill="#ede8d7"/>
  <rect x="17" y="40" width="4" height="2" fill="#ede8d7"/>
  <rect x="43" y="40" width="4" height="2" fill="#ede8d7"/>
  <g transform="translate(4,4)"><rect x="0" y="0" width="14" height="14" fill="#6d6758"/><rect x="2" y="2" width="10" height="10" fill="#d9d0b7"/><rect x="5" y="4" width="4" height="4" fill="#443f3a"/><rect x="6" y="9" width="2" height="2" fill="#443f3a"/></g>
</svg>