<svg xmlns="http://www.w3.org/2000/svg" viewBox="0 0 64 64">
  <rect x="0" y="0" width="64" height="64" fill="#252422"/>
  <rect x="4" y="4" width="56" height="56" fill="#302e2b" opacity="0.45"/>
  <rect x="2" y="2" width="60" height="60" fill="none" stroke="#443f3a" stroke-opacity="0.65" stroke-width="2"/>
  <rect x="6" y="6" width="52" height="52" fill="none" stroke="#cdc6b4" stroke-opacity="0.30" stroke-width="1"/>
  <rect x="3" y="3" width="20" height="20" fill="#252422" opacity="0.72"/>
  <rect x="8" y="7" width="10" height="48" fill="#443f3a"/>
  <rect x="10" y="7" width="6" height="48" fill="#6d6758"/>
  <rect x="10" y="8" width="2" height="46" fill="#ede8d7"/>
  <rect x="18" y="7" width="16" height="48" fill="#d9d0b7"/>
  <rect x="18" y="7" width="14" height="48" fill="#6d6758"/>
  <rect x="20" y="14" width="10" height="2" fill="#443f3a"/>
  <rect x="20" y="20" width="10" height="2" fill="#443f3a"/>
  <rect x="20" y="26" width="10" height="2" fill="#443f3a"/>
  <rect x="20" y="32" width="10" height="2" fill="#443f3a"/>
  <rect x="20" y="38" width="10" height="2" fill="#443f3a"/>
  <rect x="20" y="44" width="10" height="2" fill="#443f3a"/>
  <rect x="34" y="7" width="4" height="48" fill="#443f3a"/>
  <rect x="35" y="7" width="2" height="48" fill="#6d6758"/>
  <rect x="38" y="7" width="16" height="48" fill="#d9d0b7"/>
  <rect x="38" y="7" width="14" height="48" fill="#6d6758"/>
  <rect x="42" y="16" width="8" height="2" fill="#ede8d7"/>
  <rect x="45" y="13" width="2" height="8" fill="#ede8d7"/>
  <rect x="43" y="14" width="4" height="4" fill="#ede8d7"/>
  <rect x="40" y="28" width="2" height="2" fill="#ede8d7"/>
  <rect x="46" y="28" width="2" height="2" fill="#ede8d7"/>
  <rect x="43" y="34" width="2" height="2" fill="#ede8d7"/>
  <rect x="40" y="40" width="4" height="4" fill="#ede8d7"/>
  <rect x="8" y="7" width="4" height="4" fill="#443f3a"/>
  <rect x="8" y="51" width="4" height="4" fill="#443f3a"/>
  <rect x="52" y="7" width="4" height="4" fill="#443f3a"/>
  <rect x="52" y="51" width="4" height="4" fill="#443f3a"/>
  <rect x="54" y="26" width="4" height="12" fill="#ede8d7"/>
  <rect x="55" y="28" width="2" height="8" fill="#d9d0b7"/>
  <g transform="translate(4,4)"><rect x="0" y="0" width="14" height="14" fill="#6d6758"/><rect x="2" y="2" width="10" height="10" fill="#d9d0b7"/><rect x="5" y="4" width="4" height="4" fill="#443f3a"/><rect x="6" y="9" width="2" height="2" fill="#443f3a"/></g>
</svg>