<svg xmlns="http://www.w3.org/2000/svg" viewBox="0 0 64 64">
  <rect x="0" y="0" width="64" height="64" fill="#131d0f"/>
  <rect x="4" y="4" width="56" height="56" fill="#1e3019" opacity="0.45"/>
  <rect x="2" y="2" width="60" height="60" fill="none" stroke="#2e5130" stroke-opacity="0.65" stroke-width="2"/>
  <rect x="6" y="6" width="52" height="52" fill="none" stroke="#95c36d" stroke-opacity="0.30" stroke-width="1"/>
  <rect x="3" y="3" width="20" height="20" fill="#131d0f" opacity="0.72"/>
  <rect x="16" y="9" width="32" height="3" fill="#587f44"/>
  <rect x="18" y="10" width="28" height="1" fill="#95c36d"/>
  <rect x="13" y="12" width="5" height="12" fill="#587f44"/>
  <rect x="14" y="12" width="3" height="12" fill="#2e5130"/>
  <rect x="46" y="12" width="5" height="12" fill="#587f44"/>
  <rect x="47" y="12" width="3" height="12" fill="#2e5130"/>
  <rect x="14" y="14" width="2" height="2" fill="#d2d88e"/>
  <rect x="14" y="18" width="2" height="2" fill="#d2d88e"/>
  <rect x="14" y="22" width="2" height="2" fill="#d2d88e"/>
  <rect x="48" y="14" width="2" height="2" fill="#d2d88e"/>
  <rect x="48" y="18" width="2" height="2" fill="#d2d88e"/>
  <rect x="48" y="22" width="2" height="2" fill="#d2d88e"/>
  <rect x="22" y="24" width="20" height="4" fill="#2e5130"/>
  <rect x="24" y="24" width="16" height="4" fill="#587f44"/>
  <rect x="18" y="28" width="28" height="22" fill="#2e5130"/>
  <rect x="20" y="29" width="24" height="20" fill="#587f44"/>
  <rect x="24" y="32" width="16" height="12" fill="#95c36d"/>
  <rect x="28" y="34" width="8" height="8" fill="#d2d88e"/>
  <rect x="28" y="34" width="4" height="4" fill="#95c36d"/>
  <rect x="32" y="38" width="4" height="4" fill="#587f44"/>
  <rect x="28" y="50" width="8" height="4" fill="#587f44"/>
  <rect x="30" y="52" width="4" height="2" fill="#d2d88e"/>
  <rect x="30" y="9" width="4" height="3" fill="#d2d88e"/>
  <g transform="translate(4,4)"><rect x="5" y="0" width="4" height="14" fill="#2e5130"/><rect x="2" y="2" width="4" height="4" fill="#6a9d58"/><rect x="8" y="2" width="4" height="4" fill="#79ad61"/><rect x="0" y="5" width="5" height="4" fill="#95c36d"/><rect x="9" y="5" width="5" height="4" fill="#95c36d"/><rect x="1" y="9" width="4" height="4" fill="#587f44"/><rect x="9" y="9" width="4" height="4" fill="#587f44"/><rect x="0" y="7" width="2" height="1" fill="#d2d88e"/><rect x="12" y="7" width="2" height="1" fill="#d2d88e"/></g>
</svg>