<svg xmlns="http://www.w3.org/2000/svg" viewBox="0 0 64 64">
  <rect x="0" y="0" width="64" height="64" fill="#131d0f"/>
  <rect x="4" y="4" width="56" height="56" fill="#1e3019" opacity="0.45"/>
  <rect x="2" y="2" width="60" height="60" fill="none" stroke="#2e5130" stroke-opacity="0.65" stroke-width="2"/>
  <rect x="6" y="6" width="52" height="52" fill="none" stroke="#95c36d" stroke-opacity="0.30" stroke-width="1"/>
  <rect x="3" y="3" width="20" height="20" fill="#131d0f" opacity="0.72"/>
  <rect x="16" y="16" width="32" height="6" fill="#2e5130"/>
  <rect x="16" y="42" width="32" height="6" fill="#2e5130"/>
  <rect x="10" y="22" width="8" height="20" fill="#2e5130"/>
  <rect x="46" y="22" width="8" height="20" fill="#2e5130"/>
  <rect x="20" y="20" width="24" height="4" fill="#1e3019"/>
  <rect x="20" y="40" width="24" height="4" fill="#1e3019"/>
  <rect x="14" y="24" width="6" height="16" fill="#1e3019"/>
  <rect x="44" y="24" width="6" height="16" fill="#1e3019"/>
  <rect x="20" y="24" width="24" height="16" fill="#1e3019"/>
  <rect x="17" y="17" width="30" height="4" fill="#587f44"/>
  <rect x="17" y="43" width="30" height="4" fill="#587f44"/>
  <rect x="11" y="23" width="6" height="18" fill="#587f44"/>
  <rect x="47" y="23" width="6" height="18" fill="#587f44"/>
  <rect x="22" y="20" width="20" height="6" fill="#2e5130"/>
  <rect x="22" y="38" width="20" height="6" fill="#2e5130"/>
  <rect x="24" y="22" width="16" height="20" fill="#95c36d"/>
  <rect x="26" y="24" width="12" height="16" fill="#d2d88e"/>
  <rect x="32" y="22" width="2" height="20" fill="#587f44"/>
  <rect x="26" y="24" width="12" height="4" fill="#95c36d"/>
  <rect x="26" y="24" width="4" height="4" fill="#d2d88e"/>
  <rect x="17" y="22" width="4" height="2" fill="#d2d88e"/>
  <rect x="43" y="22" width="4" height="2" fill="#d2d88e"/>
  <rect x="17" y="40" width="4" height="2" fill="#d2d88e"/>
  <rect x="43" y="40" width="4" height="2" fill="#d2d88e"/>
  <g transform="translate(4,4)"><rect x="5" y="0" width="4" height="14" fill="#2e5130"/><rect x="2" y="2" width="4" height="4" fill="#6a9d58"/><rect x="8" y="2" width="4" height="4" fill="#79ad61"/><rect x="0" y="5" width="5" height="4" fill="#95c36d"/><rect x="9" y="5" width="5" height="4" fill="#95c36d"/><rect x="1" y="9" width="4" height="4" fill="#587f44"/><rect x="9" y="9" width="4" height="4" fill="#587f44"/><rect x="0" y="7" width="2" height="1" fill="#d2d88e"/><rect x="12" y="7" width="2" height="1" fill="#d2d88e"/></g>
</svg>