<svg xmlns="http://www.w3.org/2000/svg" viewBox="0 0 64 64">
  <rect x="0" y="0" width="64" height="64" fill="#131d0f"/>
  <rect x="4" y="4" width="56" height="56" fill="#1e3019" opacity="0.45"/>
  <rect x="2" y="2" width="60" height="60" fill="none" stroke="#2e5130" stroke-opacity="0.65" stroke-width="2"/>
  <rect x="6" y="6" width="52" height="52" fill="none" stroke="#95c36d" stroke-opacity="0.30" stroke-width="1"/>
  <rect x="3" y="3" width="20" height="20" fill="#131d0f" opacity="0.72"/>
  <rect x="6" y="6" width="22" height="30" fill="#2e5130"/>
  <rect x="8" y="7" width="18" height="28" fill="#587f44"/>
  <rect x="9" y="8" width="10" height="12" fill="#95c36d"/>
  <rect x="12" y="34" width="8" height="6" fill="#2e5130"/>
  <rect x="13" y="35" width="6" height="4" fill="#587f44"/>
  <rect x="10" y="36" width="12" height="10" fill="#2e5130"/>
  <rect x="12" y="37" width="8" height="8" fill="#587f44"/>
  <rect x="14" y="44" width="4" height="6" fill="#2e5130"/>
  <rect x="6" y="20" width="22" height="3" fill="#2e5130"/>
  <rect x="7" y="21" width="20" height="1" fill="#d2d88e"/>
  <rect x="14" y="36" width="4" height="4" fill="#d2d88e"/>
  <rect x="9" y="8" width="4" height="10" fill="#d2d88e"/>
  <rect x="38" y="5" width="6" height="34" fill="#95c36d"/>
  <rect x="40" y="5" width="4" height="34" fill="#587f44"/>
  <rect x="38" y="6" width="2" height="30" fill="#d2d88e"/>
  <rect x="38" y="5" width="2" height="4" fill="#95c36d"/>
  <rect x="34" y="38" width="16" height="5" fill="#2e5130"/>
  <rect x="35" y="39" width="14" height="3" fill="#587f44"/>
  <rect x="38" y="39" width="8" height="3" fill="#d2d88e"/>
  <rect x="39" y="43" width="6" height="12" fill="#2e5130"/>
  <rect x="40" y="44" width="4" height="10" fill="#587f44"/>
  <rect x="40" y="43" width="4" height="2" fill="#d2d88e"/>
  <rect x="38" y="55" width="8" height="4" fill="#2e5130"/>
  <rect x="39" y="55" width="6" height="4" fill="#587f44"/>
  <rect x="40" y="56" width="4" height="2" fill="#d2d88e"/>
  <rect x="39" y="39" width="2" height="2" fill="#95c36d"/>
  <rect x="40" y="37" width="2" height="4" fill="#587f44"/>
  <g transform="translate(4,4)"><rect x="5" y="0" width="4" height="14" fill="#2e5130"/><rect x="2" y="2" width="4" height="4" fill="#6a9d58"/><rect x="8" y="2" width="4" height="4" fill="#79ad61"/><rect x="0" y="5" width="5" height="4" fill="#95c36d"/><rect x="9" y="5" width="5" height="4" fill="#95c36d"/><rect x="1" y="9" width="4" height="4" fill="#587f44"/><rect x="9" y="9" width="4" height="4" fill="#587f44"/><rect x="0" y="7" width="2" height="1" fill="#d2d88e"/><rect x="12" y="7" width="2" height="1" fill="#d2d88e"/></g>
</svg>