<svg xmlns="http://www.w3.org/2000/svg" viewBox="0 0 64 64">
  <rect x="0" y="0" width="64" height="64" fill="#220e06"/>
  <rect x="4" y="4" width="56" height="56" fill="#391808" opacity="0.45"/>
  <rect x="2" y="2" width="60" height="60" fill="none" stroke="#a33a24" stroke-opacity="0.65" stroke-width="2"/>
  <rect x="6" y="6" width="52" height="52" fill="none" stroke="#f5d565" stroke-opacity="0.30" stroke-width="1"/>
  <rect x="3" y="3" width="20" height="20" fill="#220e06" opacity="0.72"/>
  <rect x="16" y="9" width="32" height="3" fill="#d75333"/>
  <rect x="18" y="10" width="28" height="1" fill="#f0b54d"/>
  <rect x="13" y="12" width="5" height="12" fill="#d75333"/>
  <rect x="14" y="12" width="3" height="12" fill="#8b3218"/>
  <rect x="46" y="12" width="5" height="12" fill="#d75333"/>
  <rect x="47" y="12" width="3" height="12" fill="#8b3218"/>
  <rect x="14" y="14" width="2" height="2" fill="#f5d565"/>
  <rect x="14" y="18" width="2" height="2" fill="#f5d565"/>
  <rect x="14" y="22" width="2" height="2" fill="#f5d565"/>
  <rect x="48" y="14" width="2" height="2" fill="#f5d565"/>
  <rect x="48" y="18" width="2" height="2" fill="#f5d565"/>
  <rect x="48" y="22" width="2" height="2" fill="#f5d565"/>
  <rect x="22" y="24" width="20" height="4" fill="#8b3218"/>
  <rect x="24" y="24" width="16" height="4" fill="#d75333"/>
  <rect x="18" y="28" width="28" height="22" fill="#8b3218"/>
  <rect x="20" y="29" width="24" height="20" fill="#d75333"/>
  <rect x="24" y="32" width="16" height="12" fill="#f0b54d"/>
  <rect x="28" y="34" width="8" height="8" fill="#f5d565"/>
  <rect x="28" y="34" width="4" height="4" fill="#f0b54d"/>
  <rect x="32" y="38" width="4" height="4" fill="#d75333"/>
  <rect x="28" y="50" width="8" height="4" fill="#d75333"/>
  <rect x="30" y="52" width="4" height="2" fill="#f5d565"/>
  <rect x="30" y="9" width="4" height="3" fill="#f5d565"/>
  <g transform="translate(4,4)"><rect x="4" y="0" width="6" height="5" fill="#f5d565"/><rect x="3" y="4" width="8" height="3" fill="#d75333"/><rect x="5" y="3" width="4" height="10" fill="#f0b54d"/><rect x="4" y="8" width="6" height="6" fill="#a33a24"/><rect x="2" y="9" width="3" height="3" fill="#f5d565"/><rect x="9" y="9" width="3" height="3" fill="#f5d565"/><rect x="1" y="5" width="3" height="3" fill="#f5d565"/><rect x="10" y="5" width="3" height="3" fill="#f5d565"/></g>
</svg>