<svg xmlns="http://www.w3.org/2000/svg" viewBox="0 0 64 64">
  <rect x="0" y="0" width="64" height="64" fill="#220e06"/>
  <rect x="4" y="4" width="56" height="56" fill="#391808" opacity="0.45"/>
  <rect x="2" y="2" width="60" height="60" fill="none" stroke="#a33a24" stroke-opacity="0.65" stroke-width="2"/>
  <rect x="6" y="6" width="52" height="52" fill="none" stroke="#f5d565" stroke-opacity="0.30" stroke-width="1"/>
  <rect x="3" y="3" width="20" height="20" fill="#220e06" opacity="0.72"/>
  <rect x="8" y="8" width="48" height="48" fill="#8b3218"/>
  <rect x="10" y="9" width="44" height="46" fill="#d75333"/>
  <rect x="10" y="10" width="24" height="16" fill="#f0b54d"/>
  <rect x="12" y="12" width="40" height="40" fill="#391808"/>
  <rect x="26" y="18" width="12" height="8" fill="#d75333"/>
  <rect x="28" y="18" width="8" height="8" fill="#f0b54d"/>
  <rect x="26" y="24" width="14" height="8" fill="#d75333"/>
  <rect x="28" y="24" width="10" height="8" fill="#f0b54d"/>
  <rect x="22" y="14" width="20" height="6" fill="#d75333"/>
  <rect x="24" y="14" width="16" height="6" fill="#f0b54d"/>
  <rect x="18" y="18" width="8" height="10" fill="#d75333"/>
  <rect x="18" y="18" width="6" height="10" fill="#f0b54d"/>
  <rect x="36" y="18" width="8" height="10" fill="#d75333"/>
  <rect x="26" y="22" width="12" height="8" fill="#391808"/>
  <rect x="26" y="30" width="14" height="6" fill="#391808"/>
  <rect x="28" y="40" width="8" height="8" fill="#f5d565"/>
  <rect x="30" y="41" width="4" height="4" fill="#f0b54d"/>
  <rect x="12" y="12" width="4" height="4" fill="#f5d565"/>
  <rect x="48" y="12" width="4" height="4" fill="#f5d565"/>
  <rect x="12" y="48" width="4" height="4" fill="#f5d565"/>
  <rect x="48" y="48" width="4" height="4" fill="#f5d565"/>
  <g transform="translate(4,4)"><rect x="4" y="0" width="6" height="5" fill="#f5d565"/><rect x="3" y="4" width="8" height="3" fill="#d75333"/><rect x="5" y="3" width="4" height="10" fill="#f0b54d"/><rect x="4" y="8" width="6" height="6" fill="#a33a24"/><rect x="2" y="9" width="3" height="3" fill="#f5d565"/><rect x="9" y="9" width="3" height="3" fill="#f5d565"/><rect x="1" y="5" width="3" height="3" fill="#f5d565"/><rect x="10" y="5" width="3" height="3" fill="#f5d565"/></g>
</svg>