<svg xmlns="http://www.w3.org/2000/svg" viewBox="0 0 256 256" width="256" height="256" shape-rendering="crispEdges">
  <rect x="120" y="0" width="16" height="8" fill="#120e1c" />
  <rect x="112" y="8" width="8" height="8" fill="#120e1c" />
  <rect x="120" y="8" width="16" height="8" fill="#2d2242" />
  <rect x="136" y="8" width="8" height="8" fill="#120e1c" />
  <rect x="104" y="16" width="8" height="8" fill="#120e1c" />
  <rect x="112" y="16" width="24" height="8" fill="#2d2242" />
  <rect x="136" y="16" width="8" height="8" fill="#1c152a" />
  <rect x="144" y="16" width="8" height="8" fill="#120e1c" />
  <rect x="104" y="24" width="8" height="8" fill="#120e1c" />
  <rect x="112" y="24" width="16" height="8" fill="#2d2242" />
  <rect x="128" y="24" width="16" height="8" fill="#1c152a" />
  <rect x="144" y="24" width="8" height="8" fill="#120e1c" />
  <rect x="96" y="32" width="8" height="8" fill="#120e1c" />
  <rect x="104" y="32" width="32" height="8" fill="#2d2242" />
  <rect x="136" y="32" width="16" height="8" fill="#1c152a" />
  <rect x="152" y="32" width="8" height="8" fill="#120e1c" />
  <rect x="96" y="40" width="8" height="8" fill="#120e1c" />
  <rect x="104" y="40" width="8" height="8" fill="#2d2242" />
  <rect x="112" y="40" width="40" height="8" fill="#1c152a" />
  <rect x="152" y="40" width="8" height="8" fill="#120e1c" />
  <rect x="88" y="48" width="80" height="8" fill="#120e1c" />
  <rect x="80" y="56" width="8" height="8" fill="#120e1c" />
  <rect x="88" y="56" width="8" height="8" fill="#2d2242" />
  <rect x="96" y="56" width="16" height="8" fill="#120e1c" />
  <rect x="112" y="56" width="32" height="8" fill="#fadcbe" />
  <rect x="144" y="56" width="16" height="8" fill="#120e1c" />
  <rect x="160" y="56" width="8" height="8" fill="#2d2242" />
  <rect x="168" y="56" width="8" height="8" fill="#120e1c" />
  <rect x="72" y="64" width="8" height="8" fill="#120e1c" />
  <rect x="80" y="64" width="8" height="8" fill="#2d2242" />
  <rect x="88" y="64" width="8" height="8" fill="#120e1c" />
  <rect x="96" y="64" width="16" height="8" fill="#fadcbe" />
  <rect x="112" y="64" width="8" height="8" fill="#3e2d26" />
  <rect x="120" y="64" width="8" height="8" fill="#fadcbe" />
  <rect x="128" y="64" width="8" height="8" fill="#3e2d26" />
  <rect x="136" y="64" width="16" height="8" fill="#fadcbe" />
  <rect x="152" y="64" width="8" height="8" fill="#120e1c" />
  <rect x="160" y="64" width="8" height="8" fill="#2d2242" />
  <rect x="168" y="64" width="8" height="8" fill="#1c152a" />
  <rect x="176" y="64" width="8" height="8" fill="#120e1c" />
  <rect x="64" y="72" width="8" height="8" fill="#120e1c" />
  <rect x="72" y="72" width="16" height="8" fill="#2d2242" />
  <rect x="88" y="72" width="8" height="8" fill="#120e1c" />
  <rect x="96" y="72" width="24" height="8" fill="#fadcbe" />
  <rect x="120" y="72" width="8" height="8" fill="#e8a0a8" />
  <rect x="128" y="72" width="24" height="8" fill="#fadcbe" />
  <rect x="152" y="72" width="8" height="8" fill="#120e1c" />
  <rect x="160" y="72" width="24" height="8" fill="#1c152a" />
  <rect x="184" y="72" width="8" height="8" fill="#120e1c" />
  <rect x="64" y="80" width="32" height="8" fill="#120e1c" />
  <rect x="96" y="80" width="8" height="8" fill="#e3b793" />
  <rect x="104" y="80" width="32" height="8" fill="#fadcbe" />
  <rect x="136" y="80" width="8" height="8" fill="#e3b793" />
  <rect x="144" y="80" width="8" height="8" fill="#fadcbe" />
  <rect x="152" y="80" width="40" height="8" fill="#120e1c" />
  <rect x="88" y="88" width="16" height="8" fill="#120e1c" />
  <rect x="104" y="88" width="8" height="8" fill="#ccd4df" />
  <rect x="112" y="88" width="16" height="8" fill="#939ea9" />
  <rect x="128" y="88" width="8" height="8" fill="#ccd4df" />
  <rect x="136" y="88" width="8" height="8" fill="#939ea9" />
  <rect x="144" y="88" width="16" height="8" fill="#120e1c" />
  <rect x="96" y="96" width="16" height="8" fill="#120e1c" />
  <rect x="112" y="96" width="32" height="8" fill="#2d2242" />
  <rect x="144" y="96" width="16" height="8" fill="#120e1c" />
  <rect x="88" y="104" width="8" height="8" fill="#120e1c" />
  <rect x="96" y="104" width="8" height="8" fill="#2d2242" />
  <rect x="104" y="104" width="8" height="8" fill="#4e3b73" />
  <rect x="112" y="104" width="32" height="8" fill="#2d2242" />
  <rect x="144" y="104" width="8" height="8" fill="#4e3b73" />
  <rect x="152" y="104" width="8" height="8" fill="#2d2242" />
  <rect x="160" y="104" width="8" height="8" fill="#120e1c" />
  <rect x="88" y="112" width="8" height="8" fill="#120e1c" />
  <rect x="96" y="112" width="16" height="8" fill="#2d2242" />
  <rect x="112" y="112" width="32" height="8" fill="#1c152a" />
  <rect x="144" y="112" width="16" height="8" fill="#2d2242" />
  <rect x="160" y="112" width="8" height="8" fill="#120e1c" />
  <rect x="88" y="120" width="8" height="8" fill="#120e1c" />
  <rect x="96" y="120" width="8" height="8" fill="#fadcbe" />
  <rect x="104" y="120" width="48" height="8" fill="#2d2242" />
  <rect x="152" y="120" width="8" height="8" fill="#fadcbe" />
  <rect x="160" y="120" width="8" height="8" fill="#120e1c" />
  <rect x="88" y="128" width="8" height="8" fill="#120e1c" />
  <rect x="96" y="128" width="16" height="8" fill="#2d2242" />
  <rect x="112" y="128" width="32" height="8" fill="#4e3b73" />
  <rect x="144" y="128" width="16" height="8" fill="#2d2242" />
  <rect x="160" y="128" width="8" height="8" fill="#120e1c" />
  <rect x="88" y="136" width="8" height="8" fill="#120e1c" />
  <rect x="96" y="136" width="24" height="8" fill="#2d2242" />
  <rect x="120" y="136" width="8" height="8" fill="#dba82e" />
  <rect x="128" y="136" width="32" height="8" fill="#2d2242" />
  <rect x="160" y="136" width="8" height="8" fill="#120e1c" />
  <rect x="96" y="144" width="8" height="8" fill="#120e1c" />
  <rect x="104" y="144" width="8" height="8" fill="#1c152a" />
  <rect x="112" y="144" width="32" height="8" fill="#2d2242" />
  <rect x="144" y="144" width="8" height="8" fill="#1c152a" />
  <rect x="152" y="144" width="8" height="8" fill="#120e1c" />
  <rect x="88" y="152" width="8" height="8" fill="#120e1c" />
  <rect x="96" y="152" width="8" height="8" fill="#1c152a" />
  <rect x="104" y="152" width="8" height="8" fill="#2d2242" />
  <rect x="112" y="152" width="32" height="8" fill="#1c152a" />
  <rect x="144" y="152" width="8" height="8" fill="#2d2242" />
  <rect x="152" y="152" width="8" height="8" fill="#1c152a" />
  <rect x="160" y="152" width="8" height="8" fill="#120e1c" />
  <rect x="88" y="160" width="8" height="8" fill="#120e1c" />
  <rect x="96" y="160" width="8" height="8" fill="#1c152a" />
  <rect x="104" y="160" width="16" height="8" fill="#2d2242" />
  <rect x="120" y="160" width="16" height="8" fill="#1c152a" />
  <rect x="136" y="160" width="16" height="8" fill="#2d2242" />
  <rect x="152" y="160" width="8" height="8" fill="#1c152a" />
  <rect x="160" y="160" width="8" height="8" fill="#120e1c" />
  <rect x="88" y="168" width="8" height="8" fill="#120e1c" />
  <rect x="96" y="168" width="64" height="8" fill="#2d2242" />
  <rect x="160" y="168" width="8" height="8" fill="#120e1c" />
  <rect x="96" y="176" width="16" height="8" fill="#120e1c" />
  <rect x="112" y="176" width="32" height="8" fill="#1c152a" />
  <rect x="144" y="176" width="16" height="8" fill="#120e1c" />
  <rect x="104" y="184" width="8" height="8" fill="#1c152a" />
  <rect x="144" y="184" width="8" height="8" fill="#1c152a" />
  <rect x="104" y="192" width="8" height="8" fill="#181124" />
  <rect x="144" y="192" width="8" height="8" fill="#181124" />
  <rect x="96" y="200" width="8" height="8" fill="#2b1c1e" />
  <rect x="104" y="200" width="8" height="8" fill="#181124" />
  <rect x="144" y="200" width="8" height="8" fill="#181124" />
  <rect x="152" y="200" width="8" height="8" fill="#2b1c1e" />
  <rect x="96" y="208" width="16" height="8" fill="#2b1c1e" />
  <rect x="144" y="208" width="16" height="8" fill="#2b1c1e" />
</svg>