<svg xmlns="http://www.w3.org/2000/svg" viewBox="0 0 64 64">
  <rect x="0" y="0" width="64" height="64" fill="#e8e2cc"/>
  <rect x="4" y="4" width="56" height="56" fill="#f0e9d6" opacity="0.45"/>
  <rect x="2" y="2" width="60" height="60" fill="none" stroke="#7c735d" stroke-opacity="0.65" stroke-width="2"/>
  <rect x="6" y="6" width="52" height="52" fill="none" stroke="#b7ac8c" stroke-opacity="0.30" stroke-width="1"/>
  <rect x="3" y="3" width="20" height="20" fill="#e8e2cc" opacity="0.72"/>
  <rect x="16" y="16" width="32" height="6" fill="#635b48"/>
  <rect x="16" y="42" width="32" height="6" fill="#635b48"/>
  <rect x="10" y="22" width="8" height="20" fill="#635b48"/>
  <rect x="46" y="22" width="8" height="20" fill="#635b48"/>
  <rect x="20" y="20" width="24" height="4" fill="#f0e9d6"/>
  <rect x="20" y="40" width="24" height="4" fill="#f0e9d6"/>
  <rect x="14" y="24" width="6" height="16" fill="#f0e9d6"/>
  <rect x="44" y="24" width="6" height="16" fill="#f0e9d6"/>
  <rect x="20" y="24" width="24" height="16" fill="#f0e9d6"/>
  <rect x="17" y="17" width="30" height="4" fill="#8d8268"/>
  <rect x="17" y="43" width="30" height="4" fill="#8d8268"/>
  <rect x="11" y="23" width="6" height="18" fill="#8d8268"/>
  <rect x="47" y="23" width="6" height="18" fill="#8d8268"/>
  <rect x="22" y="20" width="20" height="6" fill="#635b48"/>
  <rect x="22" y="38" width="20" height="6" fill="#635b48"/>
  <rect x="24" y="22" width="16" height="20" fill="#efe5c8"/>
  <rect x="26" y="24" width="12" height="16" fill="#f7f0d8"/>
  <rect x="32" y="22" width="2" height="20" fill="#8d8268"/>
  <rect x="26" y="24" width="12" height="4" fill="#efe5c8"/>
  <rect x="26" y="24" width="4" height="4" fill="#f7f0d8"/>
  <rect x="17" y="22" width="4" height="2" fill="#f7f0d8"/>
  <rect x="43" y="22" width="4" height="2" fill="#f7f0d8"/>
  <rect x="17" y="40" width="4" height="2" fill="#f7f0d8"/>
  <rect x="43" y="40" width="4" height="2" fill="#f7f0d8"/>
  <g transform="translate(4,4)"><rect x="1" y="1" width="12" height="12" fill="#b7ac8c"/><rect x="3" y="3" width="8" height="8" fill="#efe5c8"/><rect x="4" y="4" width="6" height="6" fill="#7c735d"/><rect x="2" y="13" width="10" height="1" fill="#635b48"/></g>
</svg>