<svg xmlns="http://www.w3.org/2000/svg" viewBox="0 0 64 64">
  <rect x="0" y="0" width="64" height="64" fill="#1c1828"/>
  <rect x="4" y="4" width="56" height="56" fill="#2a2040" opacity="0.45"/>
  <rect x="2" y="2" width="60" height="60" fill="none" stroke="#3f364d" stroke-opacity="0.65" stroke-width="2"/>
  <rect x="6" y="6" width="52" height="52" fill="none" stroke="#7f7ca8" stroke-opacity="0.30" stroke-width="1"/>
  <rect x="3" y="3" width="20" height="20" fill="#1c1828" opacity="0.72"/>
  <rect x="29" y="6" width="6" height="52" fill="#3f364d"/>
  <rect x="30" y="6" width="4" height="52" fill="#7f7ca8"/>
  <rect x="30" y="6" width="2" height="48" fill="#e8d9f5"/>
  <rect x="28" y="24" width="8" height="4" fill="#3f364d"/>
  <rect x="29" y="25" width="6" height="2" fill="#e8d9f5"/>
  <rect x="28" y="34" width="8" height="4" fill="#3f364d"/>
  <rect x="29" y="35" width="6" height="2" fill="#e8d9f5"/>
  <rect x="28" y="44" width="8" height="4" fill="#3f364d"/>
  <rect x="29" y="45" width="6" height="2" fill="#e8d9f5"/>
  <rect x="6" y="6" width="24" height="26" fill="#3f364d"/>
  <rect x="8" y="6" width="20" height="26" fill="#7f7ca8"/>
  <rect x="10" y="7" width="12" height="14" fill="#c9c7dd"/>
  <rect x="6" y="10" width="4" height="16" fill="#c9c7dd"/>
  <rect x="6" y="12" width="2" height="10" fill="#e8d9f5"/>
  <rect x="22" y="18" width="8" height="12" fill="#3f364d"/>
  <rect x="8" y="28" width="16" height="8" fill="#7f7ca8"/>
  <rect x="6" y="28" width="20" height="4" fill="#3f364d"/>
  <rect x="34" y="8" width="16" height="18" fill="#3f364d"/>
  <rect x="34" y="8" width="14" height="18" fill="#7f7ca8"/>
  <rect x="35" y="9" width="8" height="8" fill="#c9c7dd"/>
  <rect x="48" y="10" width="4" height="12" fill="#c9c7dd"/>
  <rect x="50" y="12" width="2" height="8" fill="#e8d9f5"/>
  <rect x="34" y="24" width="12" height="6" fill="#7f7ca8"/>
  <rect x="34" y="26" width="14" height="4" fill="#3f364d"/>
  <rect x="10" y="10" width="6" height="6" fill="#e8d9f5"/>
  <rect x="11" y="11" width="4" height="4" fill="#c9c7dd"/>
  <g transform="translate(4,4)"><rect x="0" y="1" width="14" height="12" fill="#3f364d"/><rect x="2" y="3" width="10" height="8" fill="#7f7ca8"/><rect x="4" y="5" width="6" height="4" fill="#c9c7dd"/><rect x="5" y="6" width="2" height="2" fill="#2a2433"/><rect x="8" y="6" width="2" height="2" fill="#2a2433"/><rect x="5" y="9" width="4" height="1" fill="#2a2433"/><rect x="0" y="13" width="14" height="1" fill="#2a2433"/></g>
</svg>