<svg xmlns="http://www.w3.org/2000/svg" viewBox="0 0 64 64">
  <rect x="0" y="0" width="64" height="64" fill="#1c1828"/>
  <rect x="4" y="4" width="56" height="56" fill="#2a2040" opacity="0.45"/>
  <rect x="2" y="2" width="60" height="60" fill="none" stroke="#3f364d" stroke-opacity="0.65" stroke-width="2"/>
  <rect x="6" y="6" width="52" height="52" fill="none" stroke="#7f7ca8" stroke-opacity="0.30" stroke-width="1"/>
  <rect x="3" y="3" width="20" height="20" fill="#1c1828" opacity="0.72"/>
  <rect x="8" y="7" width="10" height="48" fill="#3f364d"/>
  <rect x="10" y="7" width="6" height="48" fill="#7f7ca8"/>
  <rect x="10" y="8" width="2" height="46" fill="#e8d9f5"/>
  <rect x="18" y="7" width="16" height="48" fill="#c9c7dd"/>
  <rect x="18" y="7" width="14" height="48" fill="#7f7ca8"/>
  <rect x="20" y="14" width="10" height="2" fill="#3f364d"/>
  <rect x="20" y="20" width="10" height="2" fill="#3f364d"/>
  <rect x="20" y="26" width="10" height="2" fill="#3f364d"/>
  <rect x="20" y="32" width="10" height="2" fill="#3f364d"/>
  <rect x="20" y="38" width="10" height="2" fill="#3f364d"/>
  <rect x="20" y="44" width="10" height="2" fill="#3f364d"/>
  <rect x="34" y="7" width="4" height="48" fill="#3f364d"/>
  <rect x="35" y="7" width="2" height="48" fill="#7f7ca8"/>
  <rect x="38" y="7" width="16" height="48" fill="#c9c7dd"/>
  <rect x="38" y="7" width="14" height="48" fill="#7f7ca8"/>
  <rect x="42" y="16" width="8" height="2" fill="#e8d9f5"/>
  <rect x="45" y="13" width="2" height="8" fill="#e8d9f5"/>
  <rect x="43" y="14" width="4" height="4" fill="#e8d9f5"/>
  <rect x="40" y="28" width="2" height="2" fill="#e8d9f5"/>
  <rect x="46" y="28" width="2" height="2" fill="#e8d9f5"/>
  <rect x="43" y="34" width="2" height="2" fill="#e8d9f5"/>
  <rect x="40" y="40" width="4" height="4" fill="#e8d9f5"/>
  <rect x="8" y="7" width="4" height="4" fill="#3f364d"/>
  <rect x="8" y="51" width="4" height="4" fill="#3f364d"/>
  <rect x="52" y="7" width="4" height="4" fill="#3f364d"/>
  <rect x="52" y="51" width="4" height="4" fill="#3f364d"/>
  <rect x="54" y="26" width="4" height="12" fill="#e8d9f5"/>
  <rect x="55" y="28" width="2" height="8" fill="#c9c7dd"/>
  <g transform="translate(4,4)"><rect x="0" y="1" width="14" height="12" fill="#3f364d"/><rect x="2" y="3" width="10" height="8" fill="#7f7ca8"/><rect x="4" y="5" width="6" height="4" fill="#c9c7dd"/><rect x="5" y="6" width="2" height="2" fill="#2a2433"/><rect x="8" y="6" width="2" height="2" fill="#2a2433"/><rect x="5" y="9" width="4" height="1" fill="#2a2433"/><rect x="0" y="13" width="14" height="1" fill="#2a2433"/></g>
</svg>