<svg xmlns="http://www.w3.org/2000/svg" viewBox="0 0 64 64">
  <rect x="0" y="0" width="64" height="64" fill="#1c1828"/>
  <rect x="4" y="4" width="56" height="56" fill="#2a2040" opacity="0.45"/>
  <rect x="2" y="2" width="60" height="60" fill="none" stroke="#3f364d" stroke-opacity="0.65" stroke-width="2"/>
  <rect x="6" y="6" width="52" height="52" fill="none" stroke="#7f7ca8" stroke-opacity="0.30" stroke-width="1"/>
  <rect x="3" y="3" width="20" height="20" fill="#1c1828" opacity="0.72"/>
  <rect x="8" y="8" width="48" height="48" fill="#3f364d"/>
  <rect x="10" y="9" width="44" height="46" fill="#7f7ca8"/>
  <rect x="10" y="10" width="24" height="16" fill="#c9c7dd"/>
  <rect x="12" y="12" width="40" height="40" fill="#2a2040"/>
  <rect x="26" y="18" width="12" height="8" fill="#7f7ca8"/>
  <rect x="28" y="18" width="8" height="8" fill="#c9c7dd"/>
  <rect x="26" y="24" width="14" height="8" fill="#7f7ca8"/>
  <rect x="28" y="24" width="10" height="8" fill="#c9c7dd"/>
  <rect x="22" y="14" width="20" height="6" fill="#7f7ca8"/>
  <rect x="24" y="14" width="16" height="6" fill="#c9c7dd"/>
  <rect x="18" y="18" width="8" height="10" fill="#7f7ca8"/>
  <rect x="18" y="18" width="6" height="10" fill="#c9c7dd"/>
  <rect x="36" y="18" width="8" height="10" fill="#7f7ca8"/>
  <rect x="26" y="22" width="12" height="8" fill="#2a2040"/>
  <rect x="26" y="30" width="14" height="6" fill="#2a2040"/>
  <rect x="28" y="40" width="8" height="8" fill="#e8d9f5"/>
  <rect x="30" y="41" width="4" height="4" fill="#c9c7dd"/>
  <rect x="12" y="12" width="4" height="4" fill="#e8d9f5"/>
  <rect x="48" y="12" width="4" height="4" fill="#e8d9f5"/>
  <rect x="12" y="48" width="4" height="4" fill="#e8d9f5"/>
  <rect x="48" y="48" width="4" height="4" fill="#e8d9f5"/>
  <g transform="translate(4,4)"><rect x="0" y="1" width="14" height="12" fill="#3f364d"/><rect x="2" y="3" width="10" height="8" fill="#7f7ca8"/><rect x="4" y="5" width="6" height="4" fill="#c9c7dd"/><rect x="5" y="6" width="2" height="2" fill="#2a2433"/><rect x="8" y="6" width="2" height="2" fill="#2a2433"/><rect x="5" y="9" width="4" height="1" fill="#2a2433"/><rect x="0" y="13" width="14" height="1" fill="#2a2433"/></g>
</svg>