<svg xmlns="http://www.w3.org/2000/svg" viewBox="0 0 64 64">
  <rect x="0" y="0" width="64" height="64" fill="#0c0b14"/>
  <rect x="4" y="4" width="56" height="56" fill="#17141f" opacity="0.45"/>
  <rect x="2" y="2" width="60" height="60" fill="none" stroke="#272235" stroke-opacity="0.65" stroke-width="2"/>
  <rect x="6" y="6" width="52" height="52" fill="none" stroke="#b8b0df" stroke-opacity="0.30" stroke-width="1"/>
  <rect x="3" y="3" width="20" height="20" fill="#0c0b14" opacity="0.72"/>
  <rect x="8" y="8" width="18" height="24" fill="#272235"/>
  <rect x="10" y="9" width="14" height="22" fill="#433a61"/>
  <rect x="10" y="9" width="8" height="8" fill="#6d6498"/>
  <rect x="6" y="32" width="22" height="8" fill="#272235"/>
  <rect x="8" y="33" width="20" height="6" fill="#433a61"/>
  <rect x="8" y="33" width="10" height="3" fill="#6d6498"/>
  <rect x="6" y="40" width="24" height="5" fill="#272235"/>
  <rect x="8" y="41" width="22" height="3" fill="#433a61"/>
  <rect x="6" y="45" width="10" height="4" fill="#272235"/>
  <rect x="6" y="49" width="24" height="3" fill="#272235"/>
  <rect x="8" y="50" width="20" height="1" fill="#d7d2f1"/>
  <rect x="38" y="8" width="18" height="24" fill="#272235"/>
  <rect x="40" y="9" width="14" height="22" fill="#433a61"/>
  <rect x="44" y="9" width="8" height="8" fill="#6d6498"/>
  <rect x="36" y="32" width="22" height="8" fill="#272235"/>
  <rect x="36" y="33" width="20" height="6" fill="#433a61"/>
  <rect x="46" y="33" width="10" height="3" fill="#6d6498"/>
  <rect x="34" y="40" width="24" height="5" fill="#272235"/>
  <rect x="34" y="41" width="22" height="3" fill="#433a61"/>
  <rect x="48" y="45" width="10" height="4" fill="#272235"/>
  <rect x="34" y="49" width="24" height="3" fill="#272235"/>
  <rect x="36" y="50" width="20" height="1" fill="#d7d2f1"/>
  <rect x="9" y="20" width="16" height="3" fill="#d7d2f1"/>
  <rect x="14" y="19" width="6" height="5" fill="#272235"/>
  <rect x="39" y="20" width="16" height="3" fill="#d7d2f1"/>
  <rect x="44" y="19" width="6" height="5" fill="#272235"/>
  <rect x="8" y="8" width="18" height="4" fill="#272235"/>
  <rect x="9" y="9" width="16" height="2" fill="#d7d2f1"/>
  <rect x="38" y="8" width="18" height="4" fill="#272235"/>
  <rect x="39" y="9" width="16" height="2" fill="#d7d2f1"/>
  <g transform="translate(4,4)"><rect x="5" y="0" width="4" height="3" fill="#b8b0df"/><rect x="4" y="2" width="6" height="4" fill="#6d6498"/><rect x="3" y="6" width="8" height="4" fill="#433a61"/><rect x="2" y="10" width="10" height="4" fill="#272235"/><rect x="1" y="13" width="12" height="1" fill="#17141f"/><rect x="4" y="6" width="2" height="3" fill="#d7d2f1"/><rect x="8" y="6" width="2" height="3" fill="#d7d2f1"/></g>
</svg>