<svg xmlns="http://www.w3.org/2000/svg" viewBox="0 0 64 64">
  <rect x="0" y="0" width="64" height="64" fill="#0c0b14"/>
  <rect x="4" y="4" width="56" height="56" fill="#17141f" opacity="0.45"/>
  <rect x="2" y="2" width="60" height="60" fill="none" stroke="#272235" stroke-opacity="0.65" stroke-width="2"/>
  <rect x="6" y="6" width="52" height="52" fill="none" stroke="#b8b0df" stroke-opacity="0.30" stroke-width="1"/>
  <rect x="3" y="3" width="20" height="20" fill="#0c0b14" opacity="0.72"/>
  <rect x="30" y="7" width="4" height="3" fill="#6d6498"/>
  <rect x="28" y="10" width="8" height="3" fill="#433a61"/>
  <rect x="15" y="13" width="34" height="4" fill="#272235"/>
  <rect x="17" y="14" width="30" height="2" fill="#433a61"/>
  <rect x="13" y="17" width="38" height="5" fill="#272235"/>
  <rect x="15" y="22" width="34" height="9" fill="#6d6498"/>
  <rect x="17" y="23" width="11" height="5" fill="#0c0b14"/>
  <rect x="36" y="23" width="11" height="5" fill="#0c0b14"/>
  <rect x="29" y="23" width="6" height="7" fill="#433a61"/>
  <rect x="18" y="24" width="3" height="2" fill="#d7d2f1"/>
  <rect x="37" y="24" width="3" height="2" fill="#d7d2f1"/>
  <rect x="9" y="17" width="5" height="16" fill="#272235"/>
  <rect x="50" y="17" width="5" height="16" fill="#272235"/>
  <rect x="10" y="18" width="3" height="12" fill="#433a61"/>
  <rect x="51" y="18" width="3" height="12" fill="#433a61"/>
  <rect x="13" y="31" width="38" height="7" fill="#272235"/>
  <rect x="15" y="32" width="34" height="5" fill="#433a61"/>
  <rect x="21" y="34" width="4" height="2" fill="#0c0b14"/>
  <rect x="30" y="34" width="4" height="2" fill="#0c0b14"/>
  <rect x="39" y="34" width="4" height="2" fill="#0c0b14"/>
  <rect x="17" y="38" width="30" height="5" fill="#272235"/>
  <rect x="19" y="39" width="26" height="3" fill="#433a61"/>
  <rect x="13" y="43" width="38" height="4" fill="#272235"/>
  <rect x="15" y="17" width="34" height="2" fill="#d7d2f1"/>
  <rect x="13" y="31" width="38" height="2" fill="#d7d2f1"/>
  <g transform="translate(4,4)"><rect x="5" y="0" width="4" height="3" fill="#b8b0df"/><rect x="4" y="2" width="6" height="4" fill="#6d6498"/><rect x="3" y="6" width="8" height="4" fill="#433a61"/><rect x="2" y="10" width="10" height="4" fill="#272235"/><rect x="1" y="13" width="12" height="1" fill="#17141f"/><rect x="4" y="6" width="2" height="3" fill="#d7d2f1"/><rect x="8" y="6" width="2" height="3" fill="#d7d2f1"/></g>
</svg>