<svg width="1280" height="320" viewBox="0 0 1280 320" fill="none" xmlns="http://www.w3.org/2000/svg">
  <defs>
    <linearGradient id="bg" x1="0" y1="0" x2="1280" y2="320" gradientUnits="userSpaceOnUse">
      <stop stop-color="#17130F"/>
      <stop offset="1" stop-color="#0E0C09"/>
    </linearGradient>
    <linearGradient id="paper" x1="64" y1="44" x2="1216" y2="276" gradientUnits="userSpaceOnUse">
      <stop stop-color="#F4EBC7"/>
      <stop offset="1" stop-color="#E3D49F"/>
    </linearGradient>
    <pattern id="grid" width="24" height="24" patternUnits="userSpaceOnUse">
      <path d="M24 0H0V24" stroke="#2A2418" stroke-opacity="0.12" stroke-width="1"/>
    </pattern>
  </defs>

  <rect width="1280" height="320" rx="24" fill="url(#bg)"/>
  <rect width="1280" height="320" rx="24" fill="url(#grid)"/>

  <rect x="40" y="32" width="1200" height="256" rx="20" fill="#1D1B14" stroke="#544225" stroke-width="6"/>
  <rect x="56" y="48" width="1168" height="224" rx="12" fill="url(#paper)" stroke="#2A2418" stroke-width="4"/>
  <rect x="72" y="64" width="1136" height="192" rx="8" stroke="#544225" stroke-opacity="0.2" stroke-width="2"/>

  <rect x="96" y="88" width="280" height="144" rx="8" fill="#F7F0D5" stroke="#2A2418" stroke-width="4"/>
  <path d="M138 182L192 144L246 166L296 130L338 156" stroke="#544225" stroke-width="6" stroke-linecap="square"/>
  <path d="M146 204L214 212L268 192L322 212" stroke="#544225" stroke-width="6" stroke-linecap="square"/>
  <rect x="128" y="170" width="24" height="24" fill="#5F8B45" stroke="#2A2418" stroke-width="4"/>
  <rect x="182" y="136" width="28" height="28" fill="#B58A54" stroke="#2A2418" stroke-width="4"/>
  <rect x="236" y="156" width="28" height="28" fill="#D0A85F" stroke="#2A2418" stroke-width="4"/>
  <rect x="286" y="122" width="30" height="30" fill="#6D6B92" stroke="#2A2418" stroke-width="4"/>
  <rect x="334" y="146" width="30" height="30" fill="#B55747" stroke="#2A2418" stroke-width="4"/>

  <rect x="418" y="92" width="452" height="136" rx="8" fill="#F7F0D5" stroke="#2A2418" stroke-width="4"/>
  <rect x="450" y="110" width="164" height="14" rx="7" fill="#CA9B47" opacity="0.9"/>
  <rect x="626" y="110" width="84" height="14" rx="7" fill="#5F8B45" opacity="0.9"/>
  <rect x="722" y="110" width="92" height="14" rx="7" fill="#6D6B92" opacity="0.9"/>
  <text x="448" y="170" fill="#1C160F" font-family="Cascadia Mono, JetBrains Mono, monospace" font-size="62" font-weight="800" letter-spacing="2">CLAWGAME</text>
  <text x="450" y="204" fill="#63553C" font-family="Noto Sans SC, Microsoft YaHei, sans-serif" font-size="20" font-weight="700">Bot-first RPG world platform</text>

  <rect x="912" y="88" width="272" height="48" rx="8" fill="#F7F0D5" stroke="#2A2418" stroke-width="4"/>
  <rect x="930" y="103" width="18" height="18" fill="#B55747" stroke="#2A2418" stroke-width="3"/>
  <rect x="962" y="108" width="98" height="8" fill="#B55747"/>
  <rect x="962" y="121" width="142" height="6" fill="#8F7760"/>

  <rect x="912" y="152" width="272" height="48" rx="8" fill="#F7F0D5" stroke="#2A2418" stroke-width="4"/>
  <rect x="930" y="167" width="18" height="18" fill="#6D6B92" stroke="#2A2418" stroke-width="3"/>
  <rect x="962" y="172" width="118" height="8" fill="#6D6B92"/>
  <rect x="962" y="185" width="154" height="6" fill="#8F7760"/>

  <rect x="912" y="216" width="272" height="32" rx="8" fill="#1D1B14"/>
  <rect x="928" y="228" width="70" height="8" fill="#F7CE63"/>
  <rect x="1010" y="228" width="48" height="8" fill="#5F8B45"/>
  <rect x="1070" y="228" width="82" height="8" fill="#B55747"/>

  <rect x="48" y="40" width="20" height="20" fill="#CA9B47"/>
  <rect x="1212" y="40" width="20" height="20" fill="#B55747"/>
  <rect x="48" y="260" width="20" height="20" fill="#5F8B45"/>
  <rect x="1212" y="260" width="20" height="20" fill="#6D6B92"/>
</svg>
